# xmcd CD database file
#
# Track frame offsets:
#	182
#	14487
#	28007
#	42702
#	58452
#	81857
#	95037
#	111532
#	128950
#	142765
#
# Disc length: 2095 seconds
#
# Revision: 3
# Processed by: cddbd v1.4PL0 Copyright (c) Steve Scherf et al.
# Submitted via: CDex 1.40Beta9
#
DISCID=95082d0a
DTITLE=Emmylou Harris - White Shoes
DYEAR=1983
DGENRE=Country
TTITLE0=Drivin' Wheel
TTITLE1=Pledging My Love
TTITLE2=In My Dreams
TTITLE3=White Shoes
TTITLE4=On The Radio
TTITLE5=It's Only Rock 'N Roll
TTITLE6=Diamonds Are A Girl's Best Friend
TTITLE7=Good News
TTITLE8=Baby, Better Start Turnin' 'Em Down
TTITLE9=Like An Old Fashioned Waltz
EXTD=YEAR: 1983 ID3G: 2
EXTT0=
EXTT1=
EXTT2=
EXTT3=
EXTT4=
EXTT5=
EXTT6=
EXTT7=
EXTT8=
EXTT9=
PLAYORDER=
